HIERARCHY
ROOT Root
{
	OFFSET 0.00000 0.00000 0.00000
	CHANNELS 6 Xposition Yposition Zposition Zrotation Xrotation Yrotation
	JOINT Hips
	{
		OFFSET 0 0 0	
		CHANNELS 3 Zrotation Xrotation Yrotation
		JOINT Spine
		{
			OFFSET 0 4 0	
			CHANNELS 3 Zrotation Xrotation Yrotation
			JOINT Spine1
			{
				OFFSET 0 19.4 0	
				CHANNELS 3 Zrotation Xrotation Yrotation
				JOINT Spine2
				{
					OFFSET 0 16.6 0	
					CHANNELS 3 Zrotation Xrotation Yrotation
					JOINT LeftCollar
					{
						OFFSET 0 10 0	
						CHANNELS 3 Zrotation Xrotation Yrotation
						JOINT LeftArm
						{
							OFFSET 15.6 -2 3	
							CHANNELS 3 Zrotation Xrotation Yrotation
							JOINT LeftForeArm
							{
								OFFSET 3.5 -27 -1	
								CHANNELS 3 Zrotation Xrotation Yrotation
								JOINT LeftHand
								{
									OFFSET 1 -27 1	
									CHANNELS 3 Zrotation Xrotation Yrotation
									End Site
									{
										OFFSET 0 -15 0
									}
								}
							}
						}
					}
					JOINT RightCollar
					{
						OFFSET 0 10 0	
						CHANNELS 3 Zrotation Xrotation Yrotation
						JOINT RightArm
						{
							OFFSET -15.6 -2 3	
							CHANNELS 3 Zrotation Xrotation Yrotation
							JOINT RightForeArm
							{
								OFFSET -3.5 -27 -1	
								CHANNELS 3 Zrotation Xrotation Yrotation
								JOINT RightHand
								{
									OFFSET -1 -27 1	
									CHANNELS 3 Zrotation Xrotation Yrotation
									End Site
									{
										OFFSET 0 -15 0
									}
								}
							}
						}
					}
					JOINT Neck
					{
						OFFSET 0 10 0	
						CHANNELS 3 Zrotation Xrotation Yrotation
						JOINT Head
						{
							OFFSET 0 12.7 3	
							CHANNELS 3 Zrotation Xrotation Yrotation
							End Site
							{
								OFFSET 0 12.7 3
							}
						}
					}
				}
			}
		}
	}
	JOINT LeftHip
	{
		OFFSET 0 0 0	
		CHANNELS 3 Zrotation Xrotation Yrotation
		JOINT LeftUpLeg
		{
			OFFSET 8.8 -6 0	
			CHANNELS 3 Zrotation Xrotation Yrotation
			JOINT LeftLeg
			{
				OFFSET 0 -39 2	
				CHANNELS 3 Zrotation Xrotation Yrotation
				JOINT LeftFoot
				{
					OFFSET 0 -43 -2	
					CHANNELS 3 Zrotation Xrotation Yrotation
					JOINT LeftFootFront
					{
						OFFSET 0 -7 8.5	
						CHANNELS 3 Zrotation Xrotation Yrotation
						End Site
						{
							OFFSET 0 -0.5 9
						}
					}
				}
				JOINT LeftHeel
				{
					OFFSET 0 -43 -2	
					CHANNELS 3 Zrotation Xrotation Yrotation
					End Site
					{
						OFFSET 0 -7.5 -5
					}
				}
			}
		}
	}
	JOINT RightHip
	{
		OFFSET 0 0 0	
		CHANNELS 3 Zrotation Xrotation Yrotation
		JOINT RightUpLeg
		{
			OFFSET -8.8 -6 0	
			CHANNELS 3 Zrotation Xrotation Yrotation
			JOINT RightLeg
			{
				OFFSET 0 -39 2	
				CHANNELS 3 Zrotation Xrotation Yrotation
				JOINT RightFoot
				{
					OFFSET 0 -43 -2	
					CHANNELS 3 Zrotation Xrotation Yrotation
					JOINT RightFootFront
					{
						OFFSET 0 -7 8.5	
						CHANNELS 3 Zrotation Xrotation Yrotation
						End Site
						{
							OFFSET 0 -0.5 9
						}
					}
				}
				JOINT RightHeel
				{
					OFFSET 0 -43 -2	
					CHANNELS 3 Zrotation Xrotation Yrotation
					End Site
					{
						OFFSET 0 -7.5 -5
					}
				}
			}
		}
	}
}
MOTION
Frames: 21
Frame Time: 0.002
0 96.613 0 -0 0 -0 0.3606 6.216 15.478 -0.042435 0.53127 1.9278 -0.042435 0.53127 1.9278 -0.034444 0.44637 1.6193 -0 0 -0 36.728 -1.0553 36.416 10.205 -4.116 37.368 -0 0 -0 -0 0 -0 -41.03 0.38643 -38.056 5.0649 -19.494 -42.014 -0 0 -0 3.2235 0.033785 -12.306 3.2235 0.033785 -12.306 0.3606 6.216 15.478 0.77722 -13.39 7.1455 1.2287 17.439 1.2227 -0 0 -0 -0 0 -0 -0 0 -0 0.3606 6.216 15.478 -5.8539 -9.4942 -11.439 -0.0094778 26.064 -5.7955 -0 0 -0 -0 0 -0 -0 0 -0 
0 96.613 0 -0 0 -0 0.3834 6.2282 15.37 -0.065569 0.4999 1.9729 -0.06557 0.4999 1.9729 -0.053922 0.42007 1.6572 -0 0 -0 37.109 -1.1087 36.539 10.28 -4.2277 37.193 -0 0 -0 -0 0 -0 -41.237 0.44329 -38.149 5.1086 -19.6 -42.138 -0 0 -0 3.2601 0.069981 -12.48 3.2601 0.06998 -12.48 0.3834 6.2282 15.37 0.76072 -13.367 7.1791 1.2021 17.405 1.2633 -0 0 -0 -0 0 -0 -0 0 -0 0.3834 6.2282 15.37 -5.8124 -9.4418 -11.454 0.0052727 25.907 -5.8285 -0 0 -0 -0 0 -0 -0 0 -0 
0 96.613 0 -0 0 -0 0.40608 6.241 15.26 -0.088336 0.46869 2.019 -0.088336 0.46869 2.019 -0.073093 0.39392 1.6959 -0 0 -0 37.488 -1.1638 36.658 10.354 -4.3399 37.013 -0 0 -0 -0 0 -0 -41.444 0.49762 -38.246 5.1545 -19.704 -42.255 -0 0 -0 3.2963 0.10544 -12.655 3.2963 0.10544 -12.655 0.40608 6.241 15.26 0.74287 -13.348 7.207 1.1759 17.376 1.3104 -0 0 -0 -0 0 -0 -0 0 -0 0.40608 6.241 15.26 -5.7689 -9.3909 -11.457 0.02111 25.75 -5.8687 -0 0 -0 -0 0 -0 -0 0 -0 
0 96.613 0 -0 0 -0 0.42868 6.2546 15.147 -0.11075 0.43768 2.066 -0.11075 0.43768 2.066 -0.091974 0.36792 1.7354 -0 0 -0 37.864 -1.2205 36.773 10.425 -4.4523 36.827 -0 0 -0 -0 0 -0 -41.652 0.54913 -38.348 5.2026 -19.805 -42.366 -0 0 -0 3.3323 0.14009 -12.83 3.3323 0.1401 -12.83 0.42868 6.2546 15.147 0.72357 -13.332 7.229 1.15 17.352 1.3639 -0 0 -0 -0 0 -0 -0 0 -0 0.42868 6.2546 15.147 -5.7236 -9.3418 -11.446 0.037987 25.592 -5.916 -0 0 -0 -0 0 -0 -0 0 -0 
0 96.613 0 -0 0 -0 0.4512 6.2691 15.033 -0.1328 0.40687 2.1139 -0.1328 0.40687 2.1139 -0.11055 0.3421 1.7756 -0 0 -0 38.238 -1.2786 36.883 10.495 -4.565 36.638 -0 0 -0 -0 0 -0 -41.86 0.59757 -38.455 5.2528 -19.903 -42.47 -0 0 -0 3.3679 0.17398 -13.006 3.3679 0.17398 -13.006 0.4512 6.2691 15.033 0.70287 -13.319 7.2452 1.1244 17.332 1.4239 -0 0 -0 -0 0 -0 -0 0 -0 0.4512 6.2691 15.033 -5.6764 -9.2946 -11.421 0.05576 25.434 -5.9703 -0 0 -0 -0 0 -0 -0 0 -0 
0 96.613 0 -0 0 -0 0.47366 6.2844 14.916 -0.15449 0.37628 2.1626 -0.15449 0.37628 2.1626 -0.12882 0.31647 1.8165 -0 0 -0 38.609 -1.3378 36.988 10.563 -4.6778 36.446 -0 0 -0 -0 0 -0 -42.069 0.64273 -38.565 5.3048 -19.999 -42.568 -0 0 -0 3.4031 0.20707 -13.182 3.4031 0.20707 -13.182 0.47366 6.2844 14.916 0.68078 -13.309 7.2557 1.0991 17.317 1.4902 -0 0 -0 -0 0 -0 -0 0 -0 0.47366 6.2844 14.916 -5.6275 -9.2494 -11.384 0.074403 25.276 -6.0311 -0 0 -0 -0 0 -0 -0 0 -0 
0 96.613 0 -0 0 -0 0.49608 6.3006 14.798 -0.17582 0.34593 2.2118 -0.17582 0.34593 2.2118 -0.14679 0.29104 1.8578 -0 0 -0 38.977 -1.398 37.089 10.628 -4.7906 36.252 -0 0 -0 -0 0 -0 -42.279 0.68429 -38.68 5.3587 -20.092 -42.659 -0 0 -0 3.438 0.23936 -13.358 3.438 0.23937 -13.358 0.49608 6.3006 14.798 0.65735 -13.303 7.2604 1.0742 17.307 1.5629 -0 0 -0 -0 0 -0 -0 0 -0 0.49608 6.3006 14.798 -5.5768 -9.2065 -11.334 0.093756 25.118 -6.0984 -0 0 -0 -0 0 -0 -0 0 -0 
0 96.613 0 -0 0 -0 0.51845 6.3177 14.678 -0.19677 0.31585 2.2616 -0.19677 0.31585 2.2616 -0.16445 0.26584 1.8996 -0 0 -0 39.343 -1.4589 37.184 10.691 -4.9034 36.056 -0 0 -0 -0 0 -0 -42.49 0.72206 -38.799 5.4142 -20.181 -42.744 -0 0 -0 3.4725 0.27085 -13.533 3.4725 0.27085 -13.533 0.51845 6.3177 14.678 0.63267 -13.3 7.2595 1.0494 17.302 1.6418 -0 0 -0 -0 0 -0 -0 0 -0 0.51845 6.3177 14.678 -5.5246 -9.166 -11.27 0.11383 24.96 -6.172 -0 0 -0 -0 0 -0 -0 0 -0 
0 96.613 0 -0 0 -0 0.54078 6.3356 14.556 -0.21734 0.28609 2.3117 -0.21734 0.28609 2.3117 -0.18179 0.24091 1.9417 -0 0 -0 39.706 -1.5205 37.275 10.752 -5.016 35.859 -0 0 -0 -0 0 -0 -42.702 0.75569 -38.921 5.4715 -20.268 -42.822 -0 0 -0 3.5066 0.30152 -13.709 3.5066 0.30151 -13.709 0.54078 6.3356 14.556 0.60679 -13.301 7.2531 1.0249 17.301 1.7269 -0 0 -0 -0 0 -0 -0 0 -0 0.54078 6.3356 14.556 -5.4707 -9.128 -11.194 0.13443 24.804 -6.2515 -0 0 -0 -0 0 -0 -0 0 -0 
0 96.613 0 -0 0 -0 0.56306 6.3542 14.432 -0.23751 0.25668 2.3621 -0.23751 0.25668 2.3621 -0.1988 0.21628 1.9841 -0 0 -0 40.066 -1.5824 37.36 10.811 -5.1283 35.662 -0 0 -0 -0 0 -0 -42.914 0.78501 -39.048 5.5302 -20.351 -42.894 -0 0 -0 3.5402 0.33136 -13.884 3.5402 0.33135 -13.884 0.56306 6.3542 14.432 0.57984 -13.305 7.2413 1.0006 17.305 1.818 -0 0 -0 -0 0 -0 -0 0 -0 0.56306 6.3542 14.432 -5.4153 -9.0925 -11.105 0.15554 24.648 -6.3366 -0 0 -0 -0 0 -0 -0 0 -0 
0 96.613 0 -0 0 -0 0.58527 6.3737 14.307 -0.25726 0.22766 2.4127 -0.25726 0.22766 2.4127 -0.21546 0.19196 2.0266 -0 0 -0 40.423 -1.6445 37.44 10.867 -5.2403 35.466 -0 0 -0 -0 0 -0 -43.127 0.80975 -39.178 5.5904 -20.431 -42.959 -0 0 -0 3.5734 0.36038 -14.058 3.5734 0.36038 -14.058 0.58527 6.3737 14.307 0.55192 -13.312 7.2241 0.9763 17.314 1.9151 -0 0 -0 -0 0 -0 -0 0 -0 0.58527 6.3737 14.307 -5.3584 -9.0597 -11.003 0.177 24.492 -6.4272 -0 0 -0 -0 0 -0 -0 0 -0 
0 96.613 0 -0 0 -0 0.60743 6.3938 14.18 -0.27659 0.19909 2.4633 -0.27659 0.19909 2.4633 -0.23176 0.16803 2.0691 -0 0 -0 40.777 -1.7068 37.515 10.922 -5.3518 35.271 -0 0 -0 -0 0 -0 -43.342 0.8297 -39.311 5.6521 -20.507 -43.019 -0 0 -0 3.6061 0.38856 -14.232 3.6061 0.38856 -14.232 0.60743 6.3938 14.18 0.52315 -13.323 7.2018 0.95198 17.328 2.0178 -0 0 -0 -0 0 -0 -0 0 -0 0.60743 6.3938 14.18 -5.3001 -9.0296 -10.889 0.19884 24.338 -6.523 -0 0 -0 -0 0 -0 -0 0 -0 
0 96.613 0 -0 0 -0 0.6295 6.4145 14.052 -0.29547 0.171 2.5139 -0.29547 0.17101 2.5139 -0.24769 0.14452 2.1117 -0 0 -0 41.128 -1.7689 37.584 10.974 -5.4627 35.078 -0 0 -0 -0 0 -0 -43.557 0.84466 -39.448 5.7151 -20.58 -43.072 -0 0 -0 3.6383 0.41592 -14.405 3.6383 0.41592 -14.405 0.6295 6.4145 14.052 0.49369 -13.337 7.1744 0.92757 17.346 2.126 -0 0 -0 -0 0 -0 -0 0 -0 0.6295 6.4145 14.052 -5.2405 -9.0022 -10.762 0.22089 24.185 -6.6237 -0 0 -0 -0 0 -0 -0 0 -0 
0 96.613 0 -0 0 -0 0.65146 6.4357 13.922 -0.31387 0.14346 2.5644 -0.31387 0.14346 2.5644 -0.26322 0.12145 2.1541 -0 0 -0 41.475 -1.8308 37.648 11.024 -5.5729 34.887 -0 0 -0 -0 0 -0 -43.774 0.8544 -39.589 5.7794 -20.65 -43.119 -0 0 -0 3.67 0.44244 -14.577 3.67 0.44244 -14.577 0.65146 6.4357 13.922 0.46363 -13.355 7.1421 0.90299 17.369 2.2395 -0 0 -0 -0 0 -0 -0 0 -0 0.65146 6.4357 13.922 -5.1795 -8.9776 -10.623 0.24312 24.032 -6.7291 -0 0 -0 -0 0 -0 -0 0 -0 
0 96.613 0 -0 0 -0 0.67327 6.4572 13.792 -0.33177 0.11654 2.6147 -0.33177 0.11654 2.6147 -0.27833 0.098911 2.1963 -0 0 -0 41.82 -1.8923 37.708 11.072 -5.6823 34.699 -0 0 -0 -0 0 -0 -43.991 0.85871 -39.732 5.8451 -20.715 -43.159 -0 0 -0 3.7012 0.4681 -14.747 3.7011 0.46811 -14.747 0.67327 6.4572 13.792 0.43321 -13.375 7.1051 0.8781 17.397 2.3581 -0 0 -0 -0 0 -0 -0 0 -0 0.67327 6.4572 13.792 -5.1172 -8.9558 -10.472 0.26544 23.882 -6.839 -0 0 -0 -0 0 -0 -0 0 -0 
0 96.613 0 -0 0 -0 0.69493 6.479 13.66 -0.34915 0.090277 2.6647 -0.34915 0.090276 2.6647 -0.29301 0.076924 2.2383 -0 0 -0 42.161 -1.9534 37.761 11.118 -5.7908 34.514 -0 0 -0 -0 0 -0 -44.21 0.85745 -39.879 5.912 -20.777 -43.194 -0 0 -0 3.7318 0.49292 -14.917 3.7318 0.49292 -14.917 0.69493 6.479 13.66 0.40252 -13.398 7.0637 0.85287 17.429 2.4814 -0 0 -0 -0 0 -0 -0 0 -0 0.69493 6.479 13.66 -5.0538 -8.9367 -10.31 0.28782 23.732 -6.953 -0 0 -0 -0 0 -0 -0 0 -0 
0 96.613 0 -0 0 -0 0.71638 6.5009 13.527 -0.36599 0.064753 2.7143 -0.36599 0.064751 2.7144 -0.30723 0.055557 2.28 -0 0 -0 42.499 -2.0139 37.81 11.162 -5.8982 34.332 -0 0 -0 -0 0 -0 -44.43 0.8504 -40.029 5.9801 -20.835 -43.223 -0 0 -0 3.7619 0.51688 -15.085 3.7619 0.51688 -15.085 0.71638 6.5009 13.527 0.37175 -13.424 7.0179 0.82712 17.466 2.6092 -0 0 -0 -0 0 -0 -0 0 -0 0.71638 6.5009 13.527 -4.9893 -8.9203 -10.136 0.31014 23.583 -7.0711 -0 0 -0 -0 0 -0 -0 0 -0 
0 96.613 0 -0 0 -0 0.73759 6.5229 13.394 -0.38225 0.040001 2.7635 -0.38225 0.040001 2.7635 -0.32096 0.03484 2.3214 -0 0 -0 42.834 -2.0737 37.854 11.205 -6.0045 34.153 -0 0 -0 -0 0 -0 -44.65 0.83751 -40.182 6.0496 -20.889 -43.247 -0 0 -0 3.7914 0.53999 -15.251 3.7914 0.53999 -15.251 0.73759 6.5229 13.394 0.34103 -13.453 6.968 0.80087 17.507 2.7411 -0 0 -0 -0 0 -0 -0 0 -0 0.73759 6.5229 13.394 -4.9237 -8.9064 -9.9513 0.33243 23.436 -7.193 -0 0 -0 -0 0 -0 -0 0 -0 
0 96.613 0 -0 0 -0 0.75853 6.5447 13.259 -0.39791 0.016128 2.8122 -0.39791 0.016127 2.8122 -0.3342 0.01486 2.3623 -0 0 -0 43.166 -2.1329 37.893 11.245 -6.1095 33.979 -0 0 -0 -0 0 -0 -44.872 0.81857 -40.338 6.1202 -20.939 -43.264 -0 0 -0 3.8203 0.5622 -15.416 3.8203 0.5622 -15.416 0.75853 6.5447 13.259 0.31054 -13.484 6.9143 0.77394 17.552 2.8769 -0 0 -0 -0 0 -0 -0 0 -0 0.75853 6.5447 13.259 -4.8572 -8.8951 -9.7558 0.35464 23.29 -7.3185 -0 0 -0 -0 0 -0 -0 0 -0 
0 96.613 0 -0 0 -0 0.77914 6.5662 13.124 -0.41295 -0.0068493 2.8604 -0.41295 -0.0068493 2.8604 -0.34691 -0.0043681 2.4027 -0 0 -0 43.494 -2.1913 37.926 11.284 -6.2131 33.809 -0 0 -0 -0 0 -0 -45.095 0.79352 -40.497 6.1921 -20.985 -43.276 -0 0 -0 3.8486 0.58359 -15.58 3.8486 0.58359 -15.58 0.77914 6.5662 13.124 0.28043 -13.518 6.8571 0.74633 17.602 3.0161 -0 0 -0 -0 0 -0 -0 0 -0 0.77914 6.5662 13.124 -4.7898 -8.8862 -9.5499 0.37665 23.145 -7.4476 -0 0 -0 -0 0 -0 -0 0 -0 
0 96.613 0 -0 0 -0 0.79939 6.5874 12.988 -0.42735 -0.028828 2.9079 -0.42735 -0.028827 2.9079 -0.35908 -0.022758 2.4426 -0 0 -0 43.818 -2.2489 37.955 11.322 -6.3152 33.644 -0 0 -0 -0 0 -0 -45.319 0.7622 -40.659 6.2652 -21.026 -43.283 -0 0 -0 3.8763 0.60405 -15.742 3.8763 0.60405 -15.742 0.79939 6.5874 12.988 0.25089 -13.554 6.7965 0.71789 17.656 3.1582 -0 0 -0 -0 0 -0 -0 0 -0 0.79939 6.5874 12.988 -4.7216 -8.8796 -9.3342 0.39854 23.002 -7.58 -0 0 -0 -0 0 -0 -0 0 -0 
